<svg height="512" viewBox="0 0 59 60" width="512" xmlns="http://www.w3.org/2000/svg"><g id="Page-1" fill="none" fill-rule="evenodd"><g id="005---Happy-Monkey" fill-rule="nonzero" transform="translate(0 -1)"><path id="Shape" d="m49 37c0 2.81-3.61 4.87-9.08 6-7.2201639 1.32001-14.6198361 1.32001-21.84 0-5.47-1.13-9.08-3.19-9.08-6 .07251438-1.5557766.79888733-3.0085225 2-4 0-.37-.22-1.23-.23-1.25-2.26-13.92 6.37-16.75 11.23-16.75 2.887058-.0385895 5.5675092 1.4930969 7 4 1.4324908-2.5069031 4.112942-4.0385895 7-4 4.44 0 12 2.37 11.58 13.4-.0765331 1.5458115-.2704246 3.0835721-.58 4.6 1.2011127.9914775 1.9274856 2.4442234 2 4z" fill="#e8edfc"/><path id="Shape" d="m47 33c.3062475-1.5169747.5001074-3.0544849.58-4.6.42-11.03-7.14-13.4-11.58-13.4-.4453971.0047349-.889877.0414964-1.33.11 6.66.85 11.25 5.95 9.56 16.64 0 0-.19.88-.23 1.25 1.2011127.9914775 1.9274856 2.4442234 2 4 0 2.81-3.61 4.87-9.08 6-3.1033679.6170581-6.2562482.9517588-9.42 1 4.1640152.118096 8.3285199-.2172103 12.42-1 5.47-1.14 9.08-3.2 9.08-6-.0725144-1.5557766-.7988873-3.0085225-2-4z" fill="#cad9fc"/><path id="Shape" d="m49 21c.0738485 2.3497268-.1343038 4.6998328-.62 7-.37 1.55-.83 2.42-1.15 3.76.1825851-1.1087932.2994557-2.2274115.35-3.35.42-11.04-7.14-13.41-11.58-13.41-2.887058-.0385895-5.5675092 1.4930969-7 4-1.4324908-2.5069031-4.112942-4.0385895-7-4-4.86 0-13.49 2.83-11.23 16.75-.32-1.34-.78-2.21-1.15-3.76-.47831285-2.2978841-.68639137-4.6438016-.62-6.99 0-8.07 5.79-13.53 13.87-15.35-.7232216-.49541353-1.0395269-1.40406228-.7802711-2.2414812.2592557-.83741893 1.0336389-1.40840246 1.9102711-1.4085188 2 0 5 1 5 5 0-3 3-3 4-3 1.91 0 2.91.82 3 1.86 7.61 1.99 13 7.36 13 15.14z" fill="#cad9fc"/><path id="Shape" d="m36 5.86c-.09-1.04-1.09-1.86-3-1.86-.5709778-.01344417-1.1415574.04025744-1.7.16.8820277.1248327 1.5751673.81797235 1.7 1.7 7.41 1.94 12.7 7.08 13 14.52 1.2737175 2.4638162 1.8314739 5.2352765 1.61 8-.0505443 1.1225885-.1674149 2.2412068-.35 3.35.32-1.34.78-2.21 1.15-3.76.4732431-2.2915894.6713103-4.6314685.59-6.97 0-7.78-5.39-13.15-13-15.14z" fill="#a4c2f7"/><path id="Shape" d="m35 55c-.0075505 1.0219158.2509163 2.0282129.75 2.92-4.073345 2.7712434-9.426655 2.7712434-13.5 0 .4990837-.8917871.7575505-1.8980842.75-2.92.0061234-1.1693159-.3425579-2.3129906-1-3.28 1.601172-2.2914708 4.2049007-3.6751666 7-3.72 2.7950993.0448334 5.398828 1.4285292 7 3.72-.6574421.9670094-1.0061234 2.1106841-1 3.28z" fill="#e8edfc"/><path id="Shape" d="m36 51.72c-1.601172-2.2914708-4.2049007-3.6751666-7-3.72-.5045801.0038746-1.0073505.0608552-1.5.17 2.2292192.4130581 4.2055583 1.6886951 5.5 3.55-.6574421.9670094-1.0061234 2.1106841-1 3.28-.0075505 1.0219158.2509163 2.0282129.75 2.92-1.5641996 1.07821-3.3648875 1.7641864-5.25 2 .4979074.0571518.9988382.0838681 1.5.08 2.4091242.0089339 4.7637461-.7166385 6.75-2.08-.4990837-.8917871-.7575505-1.8980842-.75-2.92-.0061234-1.1693159.3425579-2.3129906 1-3.28z" fill="#cad9fc"/><path id="Shape" d="m23 55c.0075505 1.0219158-.2509163 2.0282129-.75 2.92-.6294359 1.2282641-1.8710293 2.022884-3.25 2.08-1.82 0-3.35-1.52-3.84-3.59-.1047901-.4627255-.1584451-.9355599-.16-1.41-.0697166-1.7886371.7836554-3.4878292 2.26-4.5.5231192-.3232006 1.1251034-.4961846 1.74-.5 1.2219056.0454455 2.3434521.6884654 3 1.72.6574421.9670094 1.0061234 2.1106841 1 3.28z" fill="#e8edfc"/><path id="Shape" d="m43 55c-.0015586.4711381-.0552181.9406588-.16 1.4-.48 2.08-2 3.6-3.84 3.6-1.3789707-.057116-2.6205641-.8517359-3.25-2.08-.4990837-.8917871-.7575505-1.8980842-.75-2.92-.0061234-1.1693159.3425579-2.3129906 1-3.28.6565479-1.0315346 1.7780944-1.6745545 3-1.72.6148966.0038154 1.2168808.1767994 1.74.5 1.4763446 1.0121708 2.3297166 2.7113629 2.26 4.5z" fill="#e8edfc"/><path id="Shape" d="m40.74 50.5c-.9797048-.6174893-2.2139726-.6670124-3.24-.13l.24.13c1.4763446 1.0121708 2.3297166 2.7113629 2.26 4.5-.0015586.4711381-.0552181.9406588-.16 1.4-.269282 1.3702735-1.1291068 2.5520752-2.35 3.23.4680023.2382986.9848459.3649424 1.51.37 1.82 0 3.36-1.52 3.84-3.6.1047819-.4593412.1584414-.9288619.16-1.4.0697166-1.7886371-.7836554-3.4878292-2.26-4.5z" fill="#cad9fc"/><path id="Shape" d="m17 48c-.0010867.8401372.0860579 1.6780658.26 2.5-1.4763446 1.0121708-2.3297166 2.7113629-2.26 4.5.0015549.4744401.0552099.9472745.16 1.41-.78 2.69-4.16 1.59-4.16-.64-.16692-2.6353205.5357027-5.2525902 2-7.45 1.3030419-2.1087816 3.0335716-3.9210686 5.08-5.32-.7151744 1.5696744-1.0835426 3.2750827-1.08 5z" fill="#e8edfc"/><path id="Shape" d="m47 55.77c0 2.28-3.4 3.32-4.16.63.6095314-2.2125636-.2296002-4.5701238-2.1-5.9.5401206-2.5231412.2525697-5.1531797-.82-7.5 2.0464284 1.3989314 3.7769581 3.2112184 5.08 5.32 1.456195 2.201069 2.1580745 4.8155701 2 7.45z" fill="#e8edfc"/><path id="Shape" d="m45 48.32c-1.3030419-2.1087816-3.0335716-3.9210686-5.08-5.32.532806 1.2020998.8703833 2.4815178 1 3.79 1.6475437 1.9374619 2.690601 4.3156325 3 6.84.06.77.07 1.09.07 2.12.0014976.5951194-.2448899 1.1639845-.68 1.57 1.22 1.44 3.68.34 3.68-1.57.1602781-2.6269694-.5381859-5.2348023-1.99-7.43z" fill="#cad9fc"/><path id="Shape" d="m41 48c.0010867.8401372-.0860579 1.6780658-.26 2.5-.5231192-.3232006-1.1251034-.4961846-1.74-.5-1.2219056.0454455-2.3434521.6884654-3 1.72-1.601172-2.2914708-4.2049007-3.6751666-7-3.72-2.7950993.0448334-5.398828 1.4285292-7 3.72-.6565479-1.0315346-1.7780944-1.6745545-3-1.72-.6148966.0038154-1.2168808.1767994-1.74.5-.5358221-2.5233588-.2484198-5.1520384.82-7.5 3.5975991.6962718 7.2557762 1.0312697 10.92 1 3.6642238.0312697 7.3224009-.3037282 10.92-1 .7151744 1.5696744 1.0835426 3.2750827 1.08 5z" fill="#cad9fc"/><path id="Shape" d="m39.92 43c-.89.18-1.84.34-2.82.47.5904942 1.4374787.8961544 2.9759685.9 4.53-.0013622.7519924-.0750346 1.5021114-.22 2.24.982249-.4097755 2.1028948-.3126529 3 .26.5233395-2.5276139.2218992-5.1564535-.86-7.5z" fill="#a4c2f7"/><path id="Shape" d="m58 53c0 5-5.09 5-7 5h-6.27c.2136254-.0039092.4256642-.0375662.63-.1.9612686-.2636788 1.6308096-1.1332656 1.64-2.13 0-.59 0-1.17 0-1.77h4c3 0 3-.42 3-1 0-1-.26-1.18-1.48-1.83-1.580319-.6565293-2.8183384-1.9379881-3.42-3.54-.5434516-1.7810452-.0891176-3.7167374 1.19-5.07 1.6267085-1.6144347 4.0152109-2.1922982 6.2-1.5 1.0714324.2761424 1.7161423 1.3685676 1.44 2.44-.2761424 1.0714324-1.3685676 1.7161423-2.44 1.44-.7686345-.3092724-1.6443775-.1792494-2.29.34-.2827809.2866369-.402958.6959902-.32 1.09.17.51.55.76 1.51 1.27 1.36.72 3.61 1.92 3.61 5.36z" fill="#e8edfc"/><path id="Shape" d="m54.41 47.64c-1-.51-1.34-.76-1.51-1.27-.082958-.3940098.0372191-.8033631.32-1.09.6456225-.5192494 1.5213655-.6492724 2.29-.34 1.0714324.2761423 2.1638576-.3685676 2.44-1.44.2761423-1.0714324-.3685676-2.1638576-1.44-2.44-1.1258743-.2911164-2.3046584-.3116765-3.44-.06.14 0 .28 0 .42.08 1.0714324.2761424 1.7161423 1.3685676 1.4399999 2.44-.2761423 1.0714324-1.3685675 1.7161423-2.4399999 1.44-.7686345-.3092724-1.6443775-.1792494-2.29.34-.2827809.2866369-.402958.6959902-.32 1.09.17.51.55.76 1.51 1.27 1.36.7 3.61 1.9 3.61 5.34 0 5-5.09 5-7 5h3c1.91 0 7 0 7-5 0-3.44-2.25-4.64-3.59-5.36z" fill="#cad9fc"/><path id="Shape" d="m29 56c-.5522847 0-1-.4477153-1-1v-1c0-.5522847.4477153-1 1-1s1 .4477153 1 1v1c0 .5522847-.4477153 1-1 1z" fill="#e8edfc"/><path id="Shape" d="m23 31c0 1.1045695-.8954305 2-2 2h-.25c-.3776732-.247283-.7797912-.455044-1.2-.62-.3591713-.3688051-.5570281-.8652459-.55-1.38 0-1.1045695.8954305-2 2-2s2 .8954305 2 2z" fill="#e8edfc"/><path id="Shape" d="m39 31c.0044227.506441-.1893784.9945325-.54 1.36-.4202088.164956-.8223268.372717-1.2.62l-.26.02c-1.1045695 0-2-.8954305-2-2s.8954305-2 2-2 2 .8954305 2 2z" fill="#e8edfc"/><path id="Shape" d="m26 36c0 .5522847.4477153 1 1 1s1-.4477153 1-1c0-1.1045695-.8954305-2-2-2-.5522847 0-1 .4477153-1 1s.4477153 1 1 1z" fill="#cad9fc"/><path id="Shape" d="m31 37c.5522847 0 1-.4477153 1-1 .5522847 0 1-.4477153 1-1s-.4477153-1-1-1c-1.1045695 0-2 .8954305-2 2 0 .5522847.4477153 1 1 1z" fill="#cad9fc"/><path id="Shape" d="m35.83 38.45c-.3051825-.456275-.9211173-.5812473-1.38-.28-1.3094432.8702662-2.8941209 1.2263736-4.45 1v-.17c0-.5522847-.4477153-1-1-1s-1 .4477153-1 1v.19c-1.5556561.2206833-3.1383239-.1349724-4.45-1-.4550261-.2440793-1.0210631-.101585-1.306288.3288453s-.1958368 1.0072424.206288 1.3311547c1.3802201.9284669 3.006555 1.4229841 4.67 1.42.6350864-.0159639 1.2660898-.1065867 1.88-.27.6163137.1431875 1.2472822.213668 1.88.21 1.663445.0029841 3.2897799-.4915331 4.67-1.42.4323484-.3027739.5549345-.8894356.28-1.34z" fill="#cad9fc"/><path id="Shape" d="m11 33c-1.20111267.9914775-1.92748562 2.4442234-2 4-3 0-8 0-8-4s2-6 5-6c1.26064982.0734539 2.49123647.4143366 3.61 1 .37 1.55.83 2.42 1.15 3.76.0046785.0197264.0046785.0402736 0 .06.05.21.1.44.14.68s.1.32.1.5z" fill="#e8edfc"/><path id="Shape" d="m57 33c0 4-5 4-8 4-.0725144-1.5557766-.7988873-3.0085225-2-4 0-.18 0-.35.08-.51s.09-.47.14-.68c-.0046785-.0197264-.0046785-.0402736 0-.06.32-1.34.78-2.21 1.15-3.76 1.1260695-.583773 2.3634708-.9212461 3.63-.99 3 0 5 2 5 6z" fill="#e8edfc"/><path id="Shape" d="m52 27c-.5071341.0114942-1.0109239.0853834-1.5.22 2.14.59 3.5 2.5 3.5 5.78 0 2.82-2.49 3.65-5 3.9v.1c3 0 8 0 8-4s-2-6-5-6z" fill="#cad9fc"/><path id="Shape" d="m12 21c0 6.56.93 7.91 1.52 10 .1589094.5837139.2725796 1.1788107.34 1.78.0265067.2867479-.0718897.5710041-.27.78-.252473.2820826-.4831375.5829494-.69.9-2.78 4.12 1.18 7.09 8.18 8.55l-.57.4-.72-.1.7.12c-1.7903966 1.333654-3.3136096 2.9925653-4.49 4.89-1.4642973 2.1974098-2.16692 4.8146795-2 7.45-.0014976.5951194.2448899 1.1639845.68 1.57-1.21 1.42-3.68.37-3.68-1.57-.16692-2.6353205.5357027-5.2525902 2-7.45 1.3030419-2.1087816 3.0335716-3.9210686 5.08-5.32-7.67-1.6-11.68-5-7.22-9.75-.33-4.08-1.86-3.88-1.86-12.25 0-8.07 5.79-13.53 13.87-15.35-.7232216-.49541353-1.0395269-1.40406228-.7802711-2.2414812.2592557-.83741893 1.0336389-1.40840246 1.9102711-1.4085188.6523913.00084247 1.3004935.10548396 1.92.31-.567169.36155979-.9146154.98399562-.9246833 1.65653169-.0100679.67253606.3185912 1.30509323.8746833 1.68346831-8.08 1.82-13.87 7.28-13.87 15.35z" fill="#fff"/><path id="Shape" d="m12 37c-3 0-8 0-8-4 0-3.11 1.27-5.17 3.4-5.79-3.9-.89-6.4 1.42-6.4 5.79 0 4 5 4 8 4" fill="#fff"/><path id="Shape" d="m29.08 43.94c-2.4485045-.1028686-4.8873305-.3701372-7.3-.8 2.407474.4651049 4.848935.7326623 7.3.8z" fill="#fff"/><path id="Shape" d="m16.11 9.58-1.11-1.65c2.3314633-1.55460721 4.9327043-2.66021942 7.67-3.26l.44 2c-2.4954283.52162417-4.8702025 1.50885172-7 2.91z" fill="#fff"/><g fill="#428dff"><path id="Shape" d="m19.07 7.85c.5522847 0 1-.44771525 1-1s-.4477153-1-1-1-1 .44771525-1 1 .4477153 1 1 1z"/><path id="Shape" d="m54.88 46.76c-.7-.38-.93-.53-1-.66.0330395-.0408956.0738169-.0748767.12-.1.13-.15.6-.23 1.31-.05 1.6071486.4031679 3.2368321-.5728514 3.64-2.18s-.5728514-3.2368321-2.18-3.64c-2.5367199-.7898257-5.3021598-.0994299-7.17 1.79-1.5210119 1.6219006-2.0587994 3.9332423-1.41 6.06.6744053 1.8511765 2.0867043 3.3395224 3.9 4.11.3241572.1562874.6322849.3438434.92.56.0094962.0864065.0094962.1735935 0 .26-.6652182.0980441-1.3386813.1281992-2.01.09h-3.16c-.2877388-1.8593567-.9696431-3.6357174-2-5.21-1.0084622-1.6065559-2.2484865-3.0554973-3.68-4.3 4-1.1 7.1-2.87 7.71-5.5 3.13.01 8.13-.45 8.13-4.99 0-4.38-2.24-7-6-7-.7861449.0206332-1.5647726.1588312-2.31.41.228034-1.7940207.3316149-3.6016741.31-5.41 0-7.66-4.92-13.57-13.18-15.94-.43-1.12-1.65-2.06-3.82-2.06-1.2940955-.08259483-2.5787101.26935438-3.65 1-1.0654282-1.93830593-3.1405247-3.10191141-5.35-3-1.6568542 0-3 1.34314575-3 3s1.3431458 3 3 3c.48 0 .87.87 1 2.17.041797.52082193.4775063.9216745 1 .92h.08c.2674375-.0202975.515512-.14717425.688505-.35213336.1729931-.20495912.2564027-.47081903.231495-.73786664-.31-3.72-2.35-4-3-4-.5522847 0-1-.44771525-1-1s.4477153-1 1-1c1.0892588-.10326765 2.1677887.28485943 2.9414646 1.05853536.773676.77367593 1.161803 1.85220587 1.0585354 2.94146464 0 .55228475.4477153 1 1 1s1-.44771525 1-1c0-1.42.87-2 3-2 1.21 0 2 .39 2 1s0 1.1-.42 1.42c-.436305.35346224-.5034622.99369505-.15 1.43s.993695.50346224 1.43.15c.5332162-.46070303.8872398-1.09440531 1-1.79 7.01 2.18 11.14 7.28 11.14 13.79v1.67c-.4935123-1.8731004-1.4493989-3.5923209-2.78-5-2.4628736-2.400951-5.780866-3.7216703-9.22-3.67-2.7056866-.0456606-5.2838927 1.1476805-7 3.24-1.7161073-2.0923195-4.2943134-3.2856606-7-3.24-1.84 0-6.46.4-9.63 4.13-1.1102035 1.3195651-1.9190251 2.8655405-2.37 4.53 0-.51 0-1.05 0-1.66-.01151005-2.2599333.5309781-4.4882548 1.58-6.49 1.0913176-1.9838945 2.6453111-3.6751059 4.53-4.93.4501704-.30466597.5745286-.91313278.28-1.37-.1467316-.22202031-.3759089-.37639517-.6367947-.42894771-.2608858-.05255253-.5319584.00105256-.7532053.14894771-2.1458712 1.43656409-3.9154663 3.3673433-5.16 5.63-1.21118838 2.2927242-1.84289559 4.8470185-1.84 7.44-.02097836 1.8083114.08260001 3.615921.31 5.41-.74544936-.2502997-1.52394572-.3884744-2.31-.41-3.76 0-6 2.62-6 7 0 4.54 5 5 8.12 5 .61 2.63 3.66 4.4 7.71 5.5-1.4315135 1.2445027-2.6715378 2.6934441-3.68 4.3-1.5631381 2.3639062-2.31753781 5.1709747-2.15 8 .019251 1.6172911 1.2179667 2.9775358 2.82 3.2h.45c.5953051.0023268 1.176184-.1831346 1.66-.53.8069683 1.510151 2.3586563 2.4747138 4.07 2.53 1.3695229-.0240583 2.6567386-.6584979 3.51-1.73 4.022214 2.3222263 8.977786 2.3222263 13 0 .8488235 1.066174 2.1275279 1.7000303 3.49 1.73 1.7146018-.0619206 3.2676607-1.0287759 4.08-2.54.4785746.3508967 1.0565676.540058 1.65.54h6.27c5.31 0 8-2 8-6s-2.67-5.46-4.12-6.24zm-15.88 2.24c-1.1115421-.0010941-2.1826897.4166534-3 1.17-1.8086213-1.9598341-4.3339854-3.1034633-7-3.17-2.6660146.0665367-5.1913787 1.2101659-7 3.17-.8199234-.7491524-1.8893743-1.1662383-3-1.17-.3164924.0008759-.6318563.0377802-.94.11-.0399273-.3686534-.0599563-.7391908-.06-1.11.0033584-1.3188254.2438523-2.6262991.71-3.86 3.3977851.5906636 6.8413066.8784604 10.29.86 3.4486934.0184604 6.8922149-.2693364 10.29-.86.4661477 1.2337009.7066416 2.5411746.71 3.86-.0000437.3708092-.0200727.7413466-.06 1.11-.3081437-.0722198-.6235076-.1091241-.94-.11zm17-16c0 2.54-2.9 2.94-6.11 3-.2108217-.9896459-.6414394-1.9192332-1.26-2.72 1.1154147-.1719303 2.2415057-.2654927 3.37-.28.5522847 0 1-.4477153 1-1s-.4477153-1-1-1c-1.2008489.0046602-2.4000958.0881732-3.59.25.09-.3.19-.61.3-.91.17-.5.35-1 .52-1.63.8677682-.4162214 1.8090091-.6574781 2.77-.71 3.31 0 4 2.72 4 5zm-54 0c0-2.28.69-5 4-5 .9643533.0589437 1.90827389.3034124 2.78.72.16.61.34 1.13.51 1.62.11.31.21.61.3.91-1.18990418-.1618268-2.38915107-.2453398-3.59-.25-.55228475 0-1 .4477153-1 1s.44771525 1 1 1c1.12825992.0111971 2.25434957.1014179 3.37.27-.61991264.8036931-1.05059635 1.7368412-1.26 2.73-3.21-.06-6.11-.46-6.11-3zm8 4c.0699412-1.2566463.6606673-2.4272261 1.63-3.23.0765164-.0599101.1438914-.1306538.2-.21v-.07c.0526953-.0826061.0899655-.1740877.11-.27 0 0 0 0 0-.06.0149189-.0893817.0149189-.1806183 0-.27 0-.21-.05-.4-.08-.56s-.1-.5-.15-.72c-.88-5.38-.16-9.47 2.13-12.16 2.0961203-2.2716351 5.0700476-3.528994 8.16-3.45 2.5124748-.0465374 4.8521598 1.2745613 6.11 3.45.171096.3339662.5147571.5440395.89.5440395s.718904-.2100733.89-.5440395c1.2716459-2.1614384 3.6023828-3.4774846 6.11-3.45 2.8762286-.0518518 5.6583249 1.0250887 7.75 3 2 2.13 3 5.27 2.83 9.32-.0507416 1.0823383-.1642658 2.1608188-.34 3.23-.05.22-.1.46-.14.69-.0412491.1947854-.0712983.3917752-.09.59-.0151056.0893662-.0151056.1806338 0 .27v.06c.0223377.0983462.059424.1927475.11.28v.06c.0561086.0793462.1234836.1500899.2.21 1.0030375.8073249 1.6141599 2.0041062 1.68 3.29 0 3.42-8.17 6-19 6s-19-2.58-19-6zm3.1 20c-.6214813-.0794835-1.0901444-.6035341-1.1-1.23-.1642345-2.4476523.4862561-4.8808391 1.85-6.92.6645198-1.084941 1.4494989-2.0913244 2.34-3-.1203181.7104852-.1838523 1.4294254-.19 2.15.0071177.6703726.0673058 1.3391292.18 2-1.4384082 1.2563692-2.2383302 3.0910528-2.18 5-.0012102.4394654.0389671.8780683.12 1.31-.1091111.4600616-.5523745.7599162-1.02.69zm5.9 2c-1.65 0-3-1.79-3-4-.0754461-1.4571366.6143804-2.8481603 1.82-3.67.3576073-.2115315.7645403-.3253349 1.18-.33 1.65 0 3 1.79 3 4s-1.35 4-3 4zm10 0c-1.9237378.0072897-3.8148881-.4965569-5.48-1.46.7263749-1.8680472.6171516-3.9578514-.3-5.74 1.4400488-1.7138141 3.5425198-2.7323121 5.78-2.8 2.2374802.0676879 4.3399512 1.0861859 5.78 2.8-.9171516 1.7821486-1.0263749 3.8719528-.3 5.74-1.6651119.9634431-3.5562622 1.4672897-5.48 1.46zm10 0c-1.65 0-3-1.79-3-4s1.35-4 3-4c.4068661.0020484.8063533.1088079 1.16.31 1.2195285.8208711 1.9182047 2.2220207 1.84 3.69 0 2.21-1.35 4-3 4zm2.82-9c.1126942-.6608708.1728823-1.3296274.18-2-.0032687-.7074542-.0668321-1.4133424-.19-2.11.8874961.911301 1.6722022 1.9173344 2.34 3 .9841286 1.4599954 1.5953019 3.1390053 1.78 4.89v.33 1.7c-.0056975.5535615-.3833999 1.0339004-.92 1.17-.1134883.0354385-.2311882.0556156-.35.06-.4067332-.011412-.7552183-.2942999-.85-.69.1016308-.443774.1651948-.8954135.19-1.35.043299-1.89163-.7552706-3.7048957-2.18-4.95zm9.18 7h-3.25c.1605475-.3904463.2453876-.8078596.25-1.23v-.77h3c2.34 0 4-.14 4-2 0-1.64-.8-2.07-2-2.72-1.3506664-.5467175-2.4099799-1.6350533-2.92-3-.4238815-1.4408903-.0421324-2.9984268 1-4.08 1.3730246-1.3175495 3.3569922-1.7780449 5.17-1.2.5357162.1380712.8580712.6842838.72 1.22s-.6842838.8580712-1.22.72c-1.1220178-.4183809-2.3837367-.1752975-3.27.63-.5186765.5746472-.7005627 1.3779779-.48 2.12.32.94 1.09 1.36 2 1.84 1.29.69 3 1.64 3 4.47 0 3.52-3 4-6 4z"/><path id="Shape" d="m29 53c-.5522847 0-1 .4477153-1 1v1c0 .5522847.4477153 1 1 1s1-.4477153 1-1v-1c0-.5522847-.4477153-1-1-1z"/><path id="Shape" d="m35.22 33.4c-.3063706.3930994-.276517.9517877.07 1.31.1877666.1893127.4433625.2957983.71.2957983s.5222334-.1064856.71-.2957983c.3297332-.335591.695248-.6340389 1.09-.89.316393-.1985894.6512927-.3660392 1-.5h.08c.3540962-.1651318.7321128-.2731365 1.12-.32.5522847 0 1-.4477153 1-1s-.4477153-1-1-1c0-1.6568542-1.3431458-3-3-3s-3 1.3431458-3 3c.0047068.9478049.4570399 1.8376405 1.22 2.4zm1.78-3.4c.5522847 0 1 .4477153 1 1-.0044812.197067-.0671039.3884143-.18.55-.2840242.1296375-.5581009.2800455-.82.45-.5522847 0-1-.4477153-1-1s.4477153-1 1-1z"/><path id="Shape" d="m26 36c0 .5522847.4477153 1 1 1s1-.4477153 1-1c0-1.1045695-.8954305-2-2-2-.5522847 0-1 .4477153-1 1s.4477153 1 1 1z"/><path id="Shape" d="m31 37c.5522847 0 1-.4477153 1-1 .5522847 0 1-.4477153 1-1s-.4477153-1-1-1c-1.1045695 0-2 .8954305-2 2 0 .5522847.4477153 1 1 1z"/><path id="Shape" d="m30.88 41.25c1.663445.0029841 3.2897799-.4915331 4.67-1.42.4021248-.3239123.4915129-.9007244.206288-1.3311547s-.8512619-.5729246-1.306288-.3288453c-1.3094432.8702662-2.8941209 1.2263736-4.45 1v-.17c0-.5522847-.4477153-1-1-1s-1 .4477153-1 1v.19c-1.5556561.2206833-3.1383239-.1349724-4.45-1-.4550261-.2440793-1.0210631-.101585-1.306288.3288453s-.1958368 1.0072424.206288 1.3311547c1.3802201.9284669 3.006555 1.4229841 4.67 1.42.6350864-.0159639 1.2660898-.1065867 1.88-.27.614715.1566634 1.2457058.2405718 1.88.25z"/><path id="Shape" d="m22.78 33.4c.7629601-.5623595 1.2152932-1.4521951 1.22-2.4 0-1.6568542-1.3431458-3-3-3s-3 1.3431458-3 3c-.5522847 0-1 .4477153-1 1s.4477153 1 1 1c.4067149.0304277.8055132.1284375 1.18.29h.08c.3314923.1368341.6495304.3042226.95.5.394752.2559611.7602668.554409 1.09.89.1877666.1893127.4433625.2957983.71.2957983s.5222334-.1064856.71-.2957983c.3266479-.3561239.3519022-.8948816.06-1.28zm-1.78-3.4c.5522847 0 1 .4477153 1 1s-.4477153 1-1 1c-.277238-.1644076-.5644625-.3113596-.86-.44-.1006986-.1688468-.1493944-.3636299-.14-.56 0-.5522847.4477153-1 1-1z"/><path id="Shape" d="m20.69 24c.2635916.0966024.5556501.0779564.8048169-.0513821.2491669-.1293385.4324918-.3574564.5051831-.6286179.0855507-.2519365.0671743-.5275791-.0510626-.7659296-.1182368-.2383504-.3265848-.4197553-.5789374-.5040704-2.3564445-.6738531-4.8728507.3081591-6.15 2.4-.3012473.4588827-.176275 1.0748175.28 1.38.146997.1032826.3205125.1622778.5.17.3345191-.0017306.6460165-.1706148.83-.45.790855-1.3269025 2.3710993-1.9614566 3.86-1.55z"/><path id="Shape" d="m37.31 24c1.5007758-.4060448 3.0865855.2512857 3.86 1.6.1951044.2604376.5047304.409655.83.4.1966006.0022477.3889572-.057208.55-.17.456275-.3051825.5812473-.9211173.28-1.38-1.2771493-2.0918409-3.7935555-3.0738531-6.15-2.4-.3394023.1125387-.5929843.3975976-.6652241.747798s.0478375.7123383.315.95.6408218.3147407.9802241.202202z"/></g></g></g></svg>