<svg height="512" viewBox="0 0 60 60" width="512" xmlns="http://www.w3.org/2000/svg" xmlns:xlink="http://www.w3.org/1999/xlink"><linearGradient id="linearGradient-1" x1="4.48%" x2="70.793%" y1="-2.368%" y2="94.732%"><stop offset="0" stop-color="#d3dff2"/><stop offset=".172" stop-color="#d3dff2"/><stop offset=".2" stop-color="#d3dff2"/><stop offset=".2" stop-color="#dae2f2"/><stop offset=".201" stop-color="#ebeaf2"/><stop offset=".201" stop-color="#f6eff2"/><stop offset=".202" stop-color="#fdf2f2"/><stop offset=".205" stop-color="#fff3f2"/><stop offset=".252" stop-color="#fff3f2"/><stop offset=".26" stop-color="#fff3f2"/><stop offset=".26" stop-color="#d3dff2"/><stop offset=".397" stop-color="#d3dff2"/><stop offset=".42" stop-color="#d3dff2"/><stop offset=".42" stop-color="#dae2f2"/><stop offset=".421" stop-color="#ebeaf2"/><stop offset=".421" stop-color="#f6eff2"/><stop offset=".422" stop-color="#fdf2f2"/><stop offset=".425" stop-color="#fff3f2"/><stop offset=".489" stop-color="#fff3f2"/><stop offset=".5" stop-color="#fff3f2"/><stop offset=".5" stop-color="#f8f0f2"/><stop offset=".5" stop-color="#e7e8f2"/><stop offset=".5" stop-color="#dce3f2"/><stop offset=".5" stop-color="#d5e0f2"/><stop offset=".501" stop-color="#d3dff2"/><stop offset=".706" stop-color="#d3dff2"/><stop offset=".74" stop-color="#d3dff2"/><stop offset=".741" stop-color="#fff3f2"/><stop offset=".835" stop-color="#fff3f2"/><stop offset=".85" stop-color="#fff3f2"/><stop offset=".851" stop-color="#d3dff2"/></linearGradient><g id="Page-1" fill="none" fill-rule="evenodd"><g id="028---Video-Chat" fill-rule="nonzero"><path id="Shape" d="m37.03 41h-36.03l5-7h26.28c.6257102 2.8567175 2.3265311 5.3631902 4.75 7z" fill="#e8edfc"/><path id="Shape" d="m47 16v4.55c-1.1302861-.3670771-2.311604-.5527128-3.5-.55-6.3512746 0-11.5 5.1487254-11.5 11.5-.0041424.8413832.0898253 1.6803804.28 2.5h-26.28v-26c.0032948-1.10320187.89679813-1.9967052 2-2h31v4l-2.96 4.45c-.2062271.3055996-.2263714.7002395-.0523337 1.0252497.1740377.3250101.5136663.5269974.8823337.5247503z" fill="url(#linearGradient-1)"/><path id="Shape" d="m44 16v4.019c1.0195089.0396157 2.028833.2182661 3 .531v-4.55z" fill="#cad9fc"/><path id="Shape" d="m37.53 41.32c-3.3168846.7169715-6.1901903 2.7724344-7.94 5.68h-25.59c-1.65685425 0-3-1.3431458-3-3v-3h36.03c.1605421.1159467.3274718.2227817.5.32z" fill="#e8edfc"/><path id="Shape" d="m26 38h8l1 3-2 2h-7-7l-2-2 1-3z" fill="#a4c2f7"/><circle id="Oval" cx="26" cy="19.5" fill="#e8edfc" r="6"/><path id="Shape" d="m26 13.5c-.5064496.0029108-1.0104803.0701149-1.5.2 2.6479943.6813094 4.498931 3.0687622 4.498931 5.803s-1.8509367 5.1216906-4.498931 5.803c2.2531797.5872914 4.6426897-.1820582 6.1299399-1.9736543 1.4872502-1.7915962 1.8036517-4.2818866.8116819-6.3884777s-3.1131667-3.4490442-5.4416218-3.443868z" fill="#cad9fc"/><path id="Shape" d="m55 31.5c.0043469 4.0160964-2.0935782 7.7415258-5.53 9.82-3.6647976 2.2400942-8.2752024 2.2400942-11.94 0-.1725282-.0972183-.3394579-.2040533-.5-.32-2.4234689-1.6368098-4.1242898-4.1432825-4.75-7-.1901747-.8196196-.2841424-1.6586168-.28-2.5 0-3.0499896 1.2116037-5.9750596 3.368272-8.131728 2.1566684-2.1566683 5.0817384-3.368272 8.131728-3.368272 1.188396-.0027128 2.3697139.1829229 3.5.55 4.7667417 1.518322 8.0025163 5.9472885 8 10.95z" fill="#e8edfc"/><path id="Shape" d="m47 20.55c-1.1302861-.3670771-2.311604-.5527128-3.5-.55-.49712.0036466-.9934859.0393876-1.486.107.6743021.0857786 1.3391651.2340839 1.986.443 4.2911705 1.368283 7.3871732 5.117601 7.9190523 9.5901223.531879 4.4725214-1.5984618 8.8433641-5.4490523 11.1798777-1.3617847.8362526-2.8851851 1.3747253-4.47 1.58.4973093.0657569.9983629.0991604 1.5.1 2.1074257.0054609 4.174704-.5762857 5.97-1.68 3.8505905-2.3365136 5.9809313-6.7073563 5.4490523-11.1798777-.5318791-4.4725213-3.6278818-8.2218393-7.9190523-9.5901223z" fill="#cad9fc"/><path id="Shape" d="m59 52.8v6.2h-31.0000002l.0000002-6.2c-.0004242-2.0410324.5488062-4.0445146 1.59-5.8 1.7498097-2.9075656 4.6231154-4.9630285 7.94-5.68 3.6647976 2.2400942 8.2752024 2.2400942 11.94 0 5.4773838 1.1155769 9.4415392 5.8908659 9.53 11.48z" fill="#e8edfc"/><path id="Shape" d="m49.47 41.32c-.3539375.2153362-.7194938.4109672-1.095.586 4.5430785 1.7139518 7.5700676 6.0386756 7.625 10.894v6.2h3v-6.2c-.0884608-5.5891341-4.0526162-10.3644231-9.53-11.48z" fill="#cad9fc"/><path id="Shape" d="m59 3v11c-.0032948 1.1032019-.8967981 1.9967052-2 2h-20.13c-.3686674.0022471-.708296-.1997402-.8823337-.5247503-.1740377-.3250102-.1538934-.7196501.0523337-1.0252497l2.96-4.45v-7c.0032948-1.10320187.8967981-1.9967052 2-2h16c1.1032019.0032948 1.9967052.89679813 2 2z" fill="#e8edfc"/><path id="Shape" d="m57 1h-3c1.1032019.0032948 1.9967052.89679813 2 2v11c-.0032948 1.1032019-.8967981 1.9967052-2 2h3c1.1032019-.0032948 1.9967052-.8967981 2-2v-11c-.0032948-1.10320187-.8967981-1.9967052-2-2z" fill="#cad9fc"/><path id="Shape" d="m32 31.5c-.0041424.8413832.0898253 1.6803804.28 2.5h-14.280096l.000096-3.57c-.0157631-2.8168692 1.9106425-5.2735542 4.65-5.93h.04c2.0052528 1.3333467 4.6147472 1.3333467 6.62 0h.04c1.459251.3428338 2.7367692 1.2206815 3.58 2.46-.6163764 1.4340722-.9328646 2.9790789-.93 4.54z" fill="#e8edfc"/><path id="Shape" d="m32.93 26.96c-.8432308-1.2393185-2.120749-2.1171662-3.58-2.46h-.04c-.4201694.2781578-.8746224.5006783-1.352.662.7827217.4462845 1.4563328 1.0611424 1.972 1.8-.6161092 1.4334535-.9325918 2.9777523-.93 4.538-.0041424.8413832.0898253 1.6803804.28 2.5h3c-.1901747-.8196196-.2841424-1.6586168-.28-2.5-.0028646-1.5609211.3136236-3.1059278.93-4.54z" fill="#cad9fc"/><path id="Shape" d="m4 47h3c-1.65685425 0-3-1.3431458-3-3v-3l5-7v-26c.0032948-1.10320187.89679813-1.9967052 2-2h-3c-1.10320187.0032948-1.9967052.89679813-2 2v26l-5 7v3c0 1.6568542 1.34314575 3 3 3z" fill="#fff"/><path id="Rectangle-path" d="m5 26h2v8h-2z" fill="#fff"/><g fill="#428dff"><path id="Shape" d="m6.02 31c-.55228475.0027614-1.00223858-.4427153-1.005-.995s.44271525-1.0022386.995-1.005h.01c.55228475 0 1 .4477153 1 1s-.44771525 1-1 1z"/><path id="Shape" d="m4 48h21.13c.5522847 0 1-.4477153 1-1s-.4477153-1-1-1h-21.13c-1.1045695 0-2-.8954305-2-2v-2h14.586l1.707 1.707c.1874927.1875494.4418052.2929434.707.293h8.5c.5522847 0 1-.4477153 1-1s-.4477153-1-1-1h-8.086l-1.269-1.27.576-1.73h10.709c.5522847 0 1-.4477153 1-1s-.4477153-1-1-1h-11.43c-.4302393.0003267-.8120445.2758064-.948.684l-.772 2.316h-13.337l3.571-5h21.486c.5522847 0 1-.4477153 1-1s-.4477153-1-1-1h-5v-2.5c0-.5522847-.4477153-1-1-1s-1 .4477153-1 1v2.5h-2v-2.57c-.0176625-2.2213714 1.4222677-4.1919306 3.544-4.85 3.1850563 1.8231158 7.2362424.8949005 9.3098064-2.1330801 2.073564-3.0279807 1.4744381-7.1407341-1.3768182-9.4512908-2.8512562-2.3105568-6.9988889-2.0444079-9.531445.6116219s-2.6011114 6.8116275-.1575432 9.549749c-2.3376781 1.2167312-3.7995722 3.6376557-3.788 6.273v2.57h-11c-.31793875.018851-.61315885.1710001-.813.419l-5 7c-.11027548.1748244-.17459883.3746739-.187.581v3c0 2.209139 1.790861 4 4 4zm22-33.5c2.7614237 0 5 2.2385763 5 5s-2.2385763 5-5 5-5-2.2385763-5-5c.0033061-2.7600532 2.2399468-4.9966939 5-5z"/><path id="Shape" d="m10 15c.2651948-.0000566.5195073-.1054506.707-.293l4-4c.3789722-.3923789.3735524-1.01608478-.0121814-1.40181858-.3857338-.38573379-1.0094397-.39115363-1.4018186-.01218142l-4 4c-.28590792.2859943-.37142191.7160366-.21667798 1.0896546.15474393.3736179.51928208.6172591.92367798.6173454z"/><path id="Shape" d="m9.293 20.707c.39049985.3903819 1.0235001.3903819 1.414 0l10-10c.3789722-.3923789.3735524-1.01608478-.0121814-1.40181858-.3857338-.38573379-1.0094397-.39115363-1.4018186-.01218142l-10 10c-.39038194.3904999-.39038194 1.0235001 0 1.414z"/><path id="Shape" d="m51.663 40.946c3.9563839-3.4115899 5.3738874-8.9237735 3.5541196-13.8207485s-6.4929528-8.1457942-11.7171196-8.1457942-9.8973518 3.2488192-11.7171196 8.1457942-.4022643 10.4091586 3.5541196 13.8207485c-4.9768161 1.8290813-8.2983752 6.5518547-8.337 11.854v6.2c0 .5522847.4477153 1 1 1h31c.5522847 0 1-.4477153 1-1v-6.2c-.0386248-5.3021453-3.3601839-10.0249187-8.337-11.854zm-18.663-9.446c0-5.7989899 4.7010101-10.5 10.5-10.5s10.5 4.7010101 10.5 10.5-4.7010101 10.5-10.5 10.5c-5.7962485-.006613-10.493387-4.7037515-10.5-10.5zm25 26.5h-6v-2c0-.5522847-.4477153-1-1-1s-1 .4477153-1 1v2h-13v-2c0-.5522847-.4477153-1-1-1s-1 .4477153-1 1v2h-6v-5.2c.0657741-4.9862587 3.5278441-9.2830897 8.386-10.408 3.7940377 2.144088 8.4339623 2.144088 12.228 0 4.8581559 1.1249103 8.3202259 5.4217413 8.386 10.408z"/><path id="Shape" d="m57 0h-16c-1.6568542 0-3 1.34314575-3 3v2h-30c-1.65685425 0-3 1.34314575-3 3v18c0 .5522847.44771525 1 1 1s1-.4477153 1-1v-18c0-.55228475.44771525-1 1-1h30v2.7l-2.8 4.194c-.4076453.6141811-.4443958 1.4028076-.0956356 2.0522376.3487603.6494301 1.0264839 1.0543661 1.7636356 1.0537624h20.132c1.6568542 0 3-1.3431458 3-3v-11c0-1.65685425-1.3431458-3-3-3zm1 14c0 .5522847-.4477153 1-1 1h-20.132l2.964-4.445c.1092599-.1645007.1676876-.3575206.168-.555v-7c0-.55228475.4477153-1 1-1h16c.5522847 0 1 .44771525 1 1z"/><path id="Shape" d="m54 5h-10c-.5522847 0-1 .44771525-1 1s.4477153 1 1 1h10c.5522847 0 1-.44771525 1-1s-.4477153-1-1-1z"/><path id="Shape" d="m54 10h-10c-.5522847 0-1 .4477153-1 1s.4477153 1 1 1h10c.5522847 0 1-.4477153 1-1s-.4477153-1-1-1z"/></g></g></g></svg>