<svg height="512" viewBox="0 0 60 60" width="512" xmlns="http://www.w3.org/2000/svg"><g id="Page-1" fill="none" fill-rule="evenodd"><g id="024---Happy-Monkey" fill-rule="nonzero"><path id="Shape" d="m44 30c-.8677258.3933178-1.7677191.7111593-2.69.95-.8482282.2322585-1.7098261.4125929-2.58.54-2.8921697.3981965-5.8111376.5687204-8.73.51-2.9199107.0454713-5.8388836-.1384273-8.73-.55-.8795824-.1344819-1.7509458-.3181025-2.61-.55-.9110174-.2225383-1.8010186-.5236665-2.66-.9-7-12 0-21 5-21s4 2 9 2 4-2 9-2 12 9 5 21z" fill="#e8edfc"/><path id="Shape" d="m39 9c-.6456903-.00537128-1.2908626.03808592-1.93.13 4.83 1.14 10.42 9.69 3.93 20.87-.8677258.3933178-1.7677191.7111593-2.69.95-.8482282.2322585-1.7098261.4125929-2.58.54-2.3953701.3363854-4.8111278.5067916-7.23.51h1.5c2.9199107.0454713 5.8388836-.1384273 8.73-.55.8701739-.1274071 1.7317718-.3077415 2.58-.54.9210275-.2258924 1.8209903-.5303408 2.69-.91 7-12 0-21-5-21z" fill="#cad9fc"/><path id="Shape" d="m48.72 26.4c-.29.33-.59.65-.9.94-1.1036301 1.1084334-2.3975432 2.0094305-3.82 2.66 7-12 0-21-5-21s-4 2-9 2-4-2-9-2-12 9-5 21c-1.4137527-.633625-2.7011651-1.517874-3.8-2.61-.31-.29-.61-.61-.9-.94-1.82-2.06-3.63-8.84-.85-14.27.2529498-.4876595.536864-.9586229.85-1.41 3.29-4.67 9.32-6.23 15.24-6.61.3112756-1.02422871.4663517-2.0895344.46-3.16 3 2 3 3 3 3 .8592296-1.35691081 2.3989336-2.12676283 4-2-.4704839.60149957-.5953942 1.40395337-.33 2.12 5.86.41 11.8 2 15 6.6.313136.4513771.5970502.9223405.85 1.41 2.83 5.43 1.02 12.21-.8 14.27z" fill="#cad9fc"/><path id="Shape" d="m49.57 12.13c-.2529498-.4876595-.536864-.9586229-.85-1.41-3.25-4.62-9.19-6.19-15-6.6-.2794859-.70754737-.1735973-1.50927495.28-2.12-1.2745675-.0568727-2.5171052.40907894-3.44 1.29.0022292.28014912.0391776.55894155.11.83 5.86.41 11.8 2 15 6.6.313136.4513771.5970502.9223405.85 1.41 2.78 5.42 1 12.2-.84 14.26-.4590402 1.2477902-1.0209736 2.4552781-1.68 3.61 1.4122771-.6406125 2.6990668-1.5278201 3.8-2.62.31-.29.61-.61.9-.94 1.84-2.1 3.65-8.88.87-14.31z" fill="#a4c2f7"/><path id="Shape" d="m12.18 27.34c-1.0025825.4387049-2.0856411.6634907-3.18.66-4.418278 0-8-3.581722-8-8s3.581722-8 8-8c.47973788-.0027485.9586223.0407865 1.43.13-2.78 5.43-1 12.21.85 14.27.29.33.59.65.9.94z" fill="#e8edfc"/><path id="Shape" d="m59 20c0 4.418278-3.581722 8-8 8-1.0943589.0034907-2.1774175-.2212951-3.18-.66.31-.29.61-.61.9-.94 1.82-2.06 3.63-8.84.85-14.27.4713777-.0892135.9502621-.1327485 1.43-.13 4.418278 0 8 3.581722 8 8z" fill="#e8edfc"/><path id="Shape" d="m51 12c-.4797379-.0027485-.9586223.0407865-1.43.13 3.7366129.7660231 6.4127201 4.0635275 6.3932719 7.8778019s-2.7290419 7.0843182-6.4732719 7.8121981c.4959115.1111411 1.0018588.1714527 1.51.18 4.418278 0 8-3.581722 8-8s-3.581722-8-8-8z" fill="#cad9fc"/><path id="Shape" d="m42 45c0 5.63-4.4 7.11-10 7-.8 0-1.5 0-2 0s-1.22 0-2 0c-5.63.05-10-1.41-10-7 .1075357-4.6986623 1.2226669-9.3194659 3.27-13.55 5.7964792.7399759 11.6635208.7399759 17.46 0 2.0423531 4.2323152 3.1572201 8.8520239 3.27 13.55z" fill="#cad9fc"/><path id="Shape" d="m41.78 41.67c-.4918214-3.5417752-1.5202841-6.9879683-3.05-10.22-.88.14-1.82.25-2.84.34 1.9406783 4.140313 2.9997365 8.6387566 3.11 13.21 0 3.92-2.17 6.74-8.35 7 2.75.06 6 .11 8.39-1.31 3.2-2.02 3.25-5.07 2.74-9.02z" fill="#a4c2f7"/><path id="Shape" d="m28 52c-.09 3.47-.64 7-4 7-3 0-4-1-4-5 .0415635-1.1932309.2502626-2.3747371.62-3.51 2.13 1.42 5.14 1.57 7.38 1.51z" fill="#e8edfc"/><path id="Shape" d="m40 54v1.33c-.22 2.9-1.32 3.67-4 3.67-3.34 0-3.89-3.49-4-7 2.1 0 4.92-.1 7-1.33l.33-.21.12.42c.3237007 1.0103133.508724 2.0599003.55 3.12z" fill="#e8edfc"/><path id="Shape" d="m39.38 50.49c-.8261599.531069-1.7405089.9103545-2.7 1.12.3228398 1.2118414.4311396 2.4708271.32 3.72-.16 2.13-.8 3.1-2.17 3.48.3776997.1239833.7724761.1880923 1.17.19 2.81 0 4-.79 4-5-.0433823-1.1930388-.2520372-2.3742945-.62-3.51z" fill="#cad9fc"/><path id="Shape" d="m47.26 39.59c-2.0279234.1586118-4.0671782-.0860988-6-.72-.5820458-2.5574532-1.4369433-5.0450371-2.55-7.42.8701739-.1274071 1.7317718-.3077415 2.58-.54.95 0 6.89-.81 9.55 1 3.64 2 3.02 7.09-3.58 7.68z" fill="#e8edfc"/><path id="Shape" d="m50.86 31.87c-1.73-1.15-4.87-1.23-7.37-1.11 1.5256634.0059472 3.0264333.3871496 4.37 1.11 3.53 2 3.07 6.9-3.27 7.68 1.7918394.2422886 3.6156259.0537393 5.32-.55 4-1.48 4.03-5.39.95-7.13z" fill="#cad9fc"/><path id="Shape" d="m21.27 31.45c-1.1185683 2.3796708-1.9736472 4.8744892-2.55 7.44-1.9109374.6073344-3.9201153.8449061-5.92.7-.9060467-.0752873-1.7975943-.2737828-2.65-.59-2.77-1-3.53-3.11-3-4.8.35800895-.9958646 1.06989165-1.8252079 2-2.33 2.27-1.51 7-1.18 9.45-1 .8781802.2442171 1.7696439.4378684 2.67.58z" fill="#e8edfc"/><path id="Shape" d="m59 47c0 6.14-4.45 9-14 9-1.6894084.0055169-3.3716439-.2199027-5-.67 0-.4 0-.84 0-1.33-.0277514-1.0477235-.1959175-2.0869903-.5-3.09 1.7328944.7569313 3.609402 1.1288209 5.5 1.09 10 0 10-3.25 10-5 0-5-2.91-5-4-5-.7777893-.0982868-1.5337025.3016673-1.89 1-.2249863.5489992-.1076177 1.1788773.3 1.61.6795536.7935206.6338645 1.9763883-.1048736 2.7151264s-1.9216058.7844272-2.7151264.1048736c-2.1082522-2.1531511-2.1303677-5.5898951-.05-7.77h.72c.9091399-.0990119 1.8006206-.321041 2.65-.66.6301767-.2307381 1.2155286-.5690918 1.73-1 4.62.3 7.36 3.6 7.36 9z" fill="#e8edfc"/><path id="Shape" d="m51.64 38c-.2070028.1682276-.4277801.3187575-.66.45 3.19 1.1 5 4.11 5 8.52 0 5.74-3.89 8.61-12.18 9h1.18c9.55 0 14-2.86 14-9 .02-5.37-2.72-8.67-7.34-8.97z" fill="#cad9fc"/><ellipse id="Oval" cx="30" cy="44" fill="#e8edfc" rx="6" ry="8"/><path id="Shape" d="m30 48c-.5522847 0-1-.4477153-1-1v-1c0-.5522847.4477153-1 1-1s1 .4477153 1 1v1c0 .5522847-.4477153 1-1 1z" fill="#cad9fc"/><path id="Shape" d="m24 21c-.3326261.0005011-.6437296-.1644212-.83-.44-.16-.24-1.66-2.2-4.72-.67-.4835272.2013504-1.0404963-.0045141-1.2768341-.4719378s-.0719586-1.0380149.3768341-1.3080622c3.79-1.9 6.42 0 7.28 1.34.3012473.4588827.176275 1.0748175-.28 1.38-.1610428.112792-.3533994.1722477-.55.17z" fill="#cad9fc"/><path id="Shape" d="m36 21c-.1994427.0004453-.3944627-.0587572-.56-.17-.4467176-.3078264-.5665168-.9156967-.27-1.37.86-1.3 3.49-3.24 7.28-1.34.4487927.2700473.6131719.8406385.3768341 1.3080622s-.7933069.6732882-1.2768341.4719378c-3.07-1.53-4.56.44-4.72.67-.1885255.2717806-.4992449.4327557-.83.43z" fill="#cad9fc"/><path id="Shape" d="m26 24h8c0 2.209139-1.790861 4-4 4s-4-1.790861-4-4z" fill="#e8edfc"/><g fill="#fff"><path id="Shape" d="m25.68 51.42c-.3640342-.1204512-.7212309-.2606592-1.07-.42.346889.1637336.7043558.3040476 1.07.42z"/><path id="Shape" d="m24.27 31.45c-.19.41-.41.9-.64 1.46.2-.5.42-.99.64-1.46z"/><path id="Shape" d="m25.79 51.46c1.1583551.3187288 2.3495038.503273 3.55.55h.18c-1.2609547-.0323469-2.5133746-.21702-3.73-.55z"/><path id="Shape" d="m10.43 12.13c-3.16449703-.5851695-6.37156357.7828018-8.13943753 3.4718698-1.76787396 2.689068-1.75234839 6.1756681.03940343 8.8488853 1.79175183 2.6732172 5.01087389 4.0125732 8.1700341 3.3992449-3.95453416-.6771095-6.79590215-4.178657-6.64413386-8.1878694.1517683-4.0092124 3.24972667-7.2859274 7.24413386-7.6621306"/><path id="Shape" d="m23 54c.0155837-.8062319.1229422-1.6080659.32-2.39l-.53-.15.54.13c.09-.38.18-.74.29-1.1l.12.07c-1.74-1.07-2.74-2.82-2.74-5.56.0329912-2.0552033.2708345-4.1019954.71-6.11-1.0300543.2951137-2.0792005.5189761-3.14.67-.3543246 1.7923339-.5451085 3.6131483-.57 5.44 0 2.74 1 4.49 2.74 5.56l-.12-.07c-.3697374 1.1352629-.5784365 2.3167691-.62 3.51 0 4 1 5 4 5 .4142922.0034204.8263687-.0607554 1.22-.19-1.63-.44-2.22-1.74-2.22-4.81zm-.32-2.58c-.3656442-.1159524-.723111-.2562664-1.07-.42.3487691.1593408.7059658.2995488 1.07.42z"/><path id="Shape" d="m13.15 39c-4-1.52-4-5.39-1-7.13 1.3484656-.7287778 2.8571998-1.1102572 4.39-1.11-2.5-.12-5.65-.05-7.39 1.11-3.06 1.74-3.08 5.61 1 7.13 1.6942329.6172868 3.5132546.8129174 5.3.57-.7877763-.0914754-1.5606749-.2830198-2.3-.57z"/><path id="Shape" d="m4.14 12.43 1.08 1.68c-.98406126.6348621-1.7950095 1.5042261-2.36 2.53-.55731531 1.0327445-.85262123 2.1864979-.86 3.36h-2c.01101693-1.5078833.38852828-2.9904733 1.1-4.32.7321043-1.3157851 1.77597502-2.4317653 3.04-3.25z"/></g><path id="Shape" d="m2 17.14c.55228475 0 1-.4477153 1-1s-.44771525-1-1-1-1 .4477153-1 1 .44771525 1 1 1z" fill="#428dff"/><path id="Shape" d="m51 29c4.9705627-.0000001 8.9999999-4.0294373 8.9999999-9s-4.0294372-8.9999999-8.9999999-9c-.3006614.0011396-.6010626.0178286-.9.05-.167579-.3114637-.3546162-.6120592-.56-.9-2.84-4-7.75-6.32-15-7 .0082955-.1701653.0599282-.33538981.15-.48.2837446-.2875607.3665967-.7176029.21-1.09-.1625128-.3511818-.5130497-.57708338-.9-.58-1.4001998-.04781937-2.7695443.41811341-3.85 1.31-.7702221-.82303897-1.6442194-1.54240594-2.6-2.14-.3003874-.19435715-.6817235-.21342395-1-.05-.3330988.1678096-.5451245.50705083-.55.88-.0080968.73003055-.0918782 1.45725343-.25 2.17-7.39.59-12.4 2.87-15.29 7-.2032614.2928029-.3902122.596598-.56.91-.29841592-.0422019-.59881908-.0689044-.9-.08-1.7226987.0070364-3.40801336.5029212-4.86 1.43-.23199693.1484792-.39247757.386076-.44358129.6567364-.05110371.2706604.01169523.5504149.17358129.7732636.33017004.3991103.89880705.5044134 1.35.25 1.12961002-.7201667 2.4403603-1.1050695 3.78-1.11-.27617842.7212608-.49355411 1.4636824-.65 2.22-1.94270609.3019025-3.57135729 1.6285269-4.26 3.47-.09954096.2529349-.09182932.5354926.02135954.7826216.11318885.247129.32210121.4375337.57864046.5273784.10283376.0143697.20716624.0143697.31 0 .45086106.022062.8606053-.2606615 1-.69.34042356-.9105639 1.07630518-1.6170103 2-1.92-.26 4 1 7.76 2.36 9.47-2.05381169.4067784-4.18187696-.1271307-5.80041779-1.4552635-1.61854083-1.3281327-2.55760388-3.3110299-2.55958221-5.4047365 0-.5522847-.44771525-1-1-1s-1 .4477153-1 1c0 4.9705627 4.02943725 9 9 9 1.0209063.0020481 2.034942-.1669578 3-.5.5087871.455624 1.0502328.8734062 1.62 1.25-1.7239826-.0183803-3.4230467.4124169-4.93 1.25-1.15622094.6274931-2.03954073 1.6604073-2.48 2.9-.67 2.08.18 4.76 3.58 6 .9315736.3510156 1.9077246.5698081 2.9.65.4181745.0490645.838964.0724417 1.26.07 1.1713724-.0110672 2.3381291-.1485299 3.48-.41-.07.43-.14.86-.2 1.3-.1512127 1.1572186-.2280371 2.3229454-.23 3.49-.1345152 2.2393251.7824366 4.4133884 2.48 5.88-.2898492 1.0158339-.4511084 2.0640188-.48 3.12 0 4.43 1.31 6 5 6 4.22 0 4.82-4.33 4.95-7h.1 1.72.28c.13 2.65.74 7 4.95 7 2.9 0 4.32-1 4.8-3.44 1.3803235.295896 2.7883216.4434006 4.2.44 10.09 0 15-3.27 15-10 0-5.21-2.39-8.71-6.48-9.7.5696311-1.0447337.6853187-2.2775291.32-3.41-.4192849-1.2337737-1.2865076-2.265162-2.43-2.89-1.5304782-.8443511-3.2520993-1.2816428-5-1.27.5692103-.3890311 1.1136006-.8131879 1.63-1.27.9500607.3422827 1.9502772.5247546 2.96.54zm7-9c-.0007862 2.0979761-.9425285 4.0849859-2.5659272 5.4139257-1.6233987 1.3289397-3.7572699 1.8596755-5.8140728 1.4460743 1.38-1.71 2.62-5.45 2.38-9.47.9502986.2845586 1.7148945.9937489 2.07 1.92.1317431.4043541.5048175.6811513.93.69.1051686-.0020267.2095273-.0188587.31-.05.2610426-.0718122.4818117-.2464015.6118522-.4838667.1300404-.2374652.1582378-.5175103.0781478-.7761333-.6886427-1.8414731-2.3172939-3.1680975-4.26-3.47-.1842809-.7593545-.4318121-1.5019479-.74-2.22 3.8659932 0 7 3.1340068 7 7zm-45.9-8.7c2.41-3.43 6.68-5.4 13-6.05.0347418.17299628.1179817.33253928.24.46.1877666.18931265.4433625.29579832.71.29579832s.5222334-.10648567.71-.29579832c.3288153-.36222213.580578-.78749703.74-1.25.1747584-.50709399.3019729-1.02934326.38-1.56.4534456.33727258.8343467.76238552 1.12 1.25.064827.39602931.36012.71494575.75.81.4468979.11383117.9136857-.09271211 1.13-.5.3862815-.60366326.9804159-1.0448169 1.67-1.24-.0058464.41225855.0480464.82319063.16 1.22.099027.34459855.2295783.67934538.39 1 .1682534.34339102.5176049.56076527.9.56.1568771.00187716.3116796-.03596343.45-.11.2665589-.11957628.4674961-.34974073.55-.63 6.28.65 10.54 2.62 12.94 6 3.7 5.24 1.7 12.59.07 14.44-.27.3-.54.59-.82.87-.2.2-.41.39-.63.58 2.89-7.13.79-12.23-.38-14.26-1.8-2.95-4.59-4.89-7.18-4.89-1.7371537-.09836228-3.4676532.28580862-5 1.11-1.2244915.66322758-2.6098151.9714621-4 .89-1.3901849.0814621-2.7755085-.22677242-4-.89-1.5323468-.82419138-3.2628463-1.20836228-5-1.11-2.59 0-5.38 1.94-7.11 5-1.17 2-3.27 7.13-.38 14.26-.21-.19-.43-.38-.63-.58-.28-.27-.56-.56-.82-.86-1.66-1.93-3.66-9.28.04-14.52zm17.9 19.7c-6.52 0-10.51-.63-13.31-1.82-4.38-7.77-2.22-13.18-1.07-15.18 1.38-2.41 3.52-4 5.38-4 1.4068971-.09093418 2.8108504.2175889 4.05.89 1.5176347.8151997 3.2295849 1.1990915 4.95 1.11 1.7371537.0983623 3.4676532-.2858086 5-1.11 1.2244915-.6632276 2.6098151-.97146207 4-.89 1.86 0 4 1.59 5.38 3.95 1.15 2 3.31 7.46-1.07 15.23-2.8 1.19-6.79 1.82-13.31 1.82zm-17.11 7.59c-.8177242-.062738-1.6224105-.2411831-2.39-.53-2.32-.87-2.75-2.41-2.39-3.55.30598524-.7809597.88523939-1.4241806 1.63-1.81 2-1.34 6.76-1 8.69-.81.4466667.12.9166667.23 1.41.33-.8240391 1.8926014-1.4929072 3.8490409-2 5.85-1.6053179.4695237-3.282156.6456764-4.95.52zm6.32 3.21c.4475073-3.1898123 1.3430067-6.3004943 2.66-9.24 2.6976779.3218118 5.4133476.4687854 8.13.44 2.7166524.0287854 5.4323221-.1181882 8.13-.44 1.3169933 2.9395057 2.2124927 6.0501877 2.66 9.24.1384119 1.0610732.2085561 2.1299383.21 3.2.1638519 1.8248265-.6598713 3.5981193-2.16 4.65l-.25.16h-.06c-1.262987.6922345-2.662659 1.0984808-4.1 1.19 1.715548-1.9216843 2.634538-4.4247698 2.57-7 0-5-3.14-9-7-9s-7 4-7 9c-.0612571 2.5728924.853313 5.07367 2.56 7-1.5466961-.0733306-3.0527694-.5193205-4.39-1.3-1.517058-1.0614757-2.3459832-2.8568436-2.17-4.7.0014439-1.0700617.0715881-2.1389268.21-3.2zm26.67 6.31c1.1701124 1.1631708 3.0598876 1.1631708 4.23 0 1.1631708-1.1701124 1.1631708-3.0598876 0-4.23-.1316656-.1431466-.1704526-.3487179-.1-.53.14-.32.72-.36 1-.36 1 0 3 0 3 4 0 1.4 0 4-9 4-1.3552879.0144377-2.7046292-.1812168-4-.58 1.3683053-1.4596115 2.0863341-3.4116395 1.99-5.41-.0032402-1.1570429-.0800619-2.3127087-.23-3.46-.06-.44-.13-.88-.21-1.31.7129788.1564934 1.4340853.2733393 2.16.35-1.3189743 2.4906959-.8474196 5.5517366 1.16 7.53zm-15.88 2.89c-2.76 0-5-3.14-5-7s2.24-7 5-7 5 3.14 5 7-2.24 7-5 7zm-6 7c-2.22 0-3-.33-3-4 .020933-.6741819.1114126-1.3444015.27-2 1.8045684.6950603 3.7265117 1.0346263 5.66 1-.22 3.54-1.09 5-2.93 5zm12 0c-1.84 0-2.71-1.46-2.93-5 1.9365655.0324124 3.861363-.3070581 5.67-1 .1575371.6555249.2446969 1.3259847.26 2 .0211685.4163978.0211685.8336022 0 1.25-.23 2.37-.91 2.75-3 2.75zm22-11c0 3.72-1.48 8-13 8-1.3459643.0000234-2.6876848-.1509202-4-.45 0-.19 0-.38 0-.55-.0014243-.5193287-.0448997-1.0376893-.13-1.55 1.3445085.3739274 2.7344917.5590341 4.13.55 9.69 0 11-3 11-6 0-4-1.68-6-5-6-1.1774131-.1116907-2.2994277.5231859-2.81 1.59-.383307.9261312-.178878 1.9915205.52 2.71.3003057.2402742.4362054.6314805.3495349 1.006185-.0866706.3747045-.3805513.6665009-.7558632.7505024-.3753118.0840014-.7655409-.0546792-1.0036717-.3566874-1.6348063-1.6673175-1.7343901-4.304125-.23-6.09h.28c.9938544-.091019 1.9718766-.3094776 2.91-.65.5830569-.2197821 1.1345006-.5156787 1.64-.88 3.88.35 6.1 3.22 6.1 7.92zm-7.63-14.26c.7216819.3739949 1.2805192 1.0004622 1.57 1.76.306284 1.0292554-.0705552 2.1397284-.94 2.77-.4258559.3408427-.9058421.6078773-1.42.79-.7631789.2785808-1.560294.4534753-2.37.52h-.68c-1.4807534.0261561-2.9570897-.1693405-4.38-.58-.5053428-1.9982323-1.1742668-3.9514904-2-5.84.48-.1.93-.21 1.37-.32 1.95-.11 6.75-.49 8.85.9z" fill="#428dff"/><path id="Shape" d="m30 45c-.5522847 0-1 .4477153-1 1v1c0 .5522847.4477153 1 1 1s1-.4477153 1-1v-1c0-.5522847-.4477153-1-1-1z" fill="#428dff"/><path id="Shape" d="m17.55 18.11c-.4487927.2700473-.6131719.8406385-.3768341 1.3080622s.7933069.6732882 1.2768341.4719378c3.06-1.53 4.56.43 4.72.67.1862704.2755788.4973739.4405011.83.44.1966006.0022477.3889572-.057208.55-.17.456275-.3051825.5812473-.9211173.28-1.38-.83-1.3-3.49-3.24-7.28-1.34z" fill="#428dff"/><path id="Shape" d="m42.45 18.11c-3.79-1.9-6.42 0-7.28 1.34-.2965168.4543033-.1767176 1.0621736.27 1.37.1643998.114785.359509.1774987.56.18.3307551.0027557.6414745-.1582194.83-.43.16-.23 1.65-2.2 4.72-.67.4835272.2013504 1.0404963-.0045141 1.2768341-.4719378s.0719586-1.0380149-.3768341-1.3080622z" fill="#428dff"/><path id="Shape" d="m34 23h-3v-1c.5522847 0 1-.4477153 1-1s-.4477153-1-1-1h-2c-.5522847 0-1 .4477153-1 1s.4477153 1 1 1v1h-3c-.5522847 0-1 .4477153-1 1 0 2.7614237 2.2385763 5 5 5s5-2.2385763 5-5c0-.2652165-.1053568-.5195704-.2928932-.7071068s-.4418903-.2928932-.7071068-.2928932zm-4 4c-1.2719262.0006668-2.4060247-.8008163-2.83-2h5.66c-.4239753 1.1991837-1.5580738 2.0006668-2.83 2z" fill="#428dff"/></g></g></svg>