<svg height="512pt" viewBox="0 0 512 512.00836" width="512pt" xmlns="http://www.w3.org/2000/svg"><path d="m503.472656 42.675781v453.546875c.007813 3.003906-1.847656 5.699219-4.660156 6.765625-2.8125 1.0625-5.988281.269531-7.972656-1.988281l-21.503906-23.382812-94.460938-102.738282c-15.996094-16.011718-37.699219-25.007812-60.332031-25.003906h-109.738281l136.53125-341.332031h128c18.851562 0 34.136718 15.28125 34.136718 34.132812zm0 0" fill="#7fabfa"/><path d="m469.335938 42.675781v434.941407l-94.460938-102.738282c-15.996094-16.011718-37.699219-25.007812-60.332031-25.003906h-109.738281l136.53125-341.332031h93.867187c18.851563 0 34.132813 15.28125 34.132813 34.132812zm0 0" fill="#e3e7f2"/><path d="m341.335938 8.542969-136.53125 341.332031h-162.132813c-18.851563 0-34.132813-15.28125-34.132813-34.132812v-273.066407c0-18.851562 15.28125-34.132812 34.132813-34.132812zm0 0" fill="#a4c2f7"/><path d="m307.203125 8.542969-136.53125 341.332031h-128c-18.851563 0-34.132813-15.28125-34.132813-34.132812v-273.066407c0-18.851562 15.28125-34.132812 34.132813-34.132812zm0 0" fill="#e3e7f2"/><path d="m54.105469 414.726562-23.296875 23.296876-17.40625-17.492188c-3.433594-3.425781-5.183594-8.1875-4.789063-13.019531s2.894531-9.246094 6.835938-12.070313c6.902343-4.582031 16.09375-3.574218 21.84375 2.390625zm0 0" fill="#e3e7f2"/><path d="m113.667969 503.132812-25.855469-10.75c-2.988281-1.234374-5.710938-3.03125-8.023438-5.292968l-48.980468-49.066406 23.296875-23.296876 48.980469 48.984376c2.289062 2.304687 4.113281 5.027343 5.375 8.019531l10.667968 25.941406c.644532 1.5625.289063 3.359375-.90625 4.554687-1.195312 1.195313-2.992187 1.550782-4.554687.90625zm0 0" fill="#a4c2f7"/><path d="m37.292969 397.832031c-5.75-5.964843-14.941407-6.972656-21.84375-2.390625-3.941407 2.824219-6.441407 7.238282-6.835938 12.070313s1.355469 9.59375 4.789063 13.019531l17.40625 17.492188 48.980468 49.066406c2.3125 2.261718 5.035157 4.058594 8.023438 5.292968l25.855469 10.75c1.5625.644532 3.359375.289063 4.554687-.90625 1.195313-1.195312 1.550782-2.992187.90625-4.554687l-1.441406-3.515625-4.265625-1.773438c-2.988281-1.234374-5.710937-3.03125-8.023437-5.292968l-48.988282-49.066406-17.410156-17.492188c-5.988281-5.980469-6.457031-15.53125-1.082031-22.066406zm0 0" fill="#fff"/><path d="m42.671875 349.875h25.597656c-18.851562 0-34.132812-15.28125-34.132812-34.132812v-273.066407c0-18.851562 15.28125-34.132812 34.132812-34.132812h-25.597656c-18.851563 0-34.132813 15.28125-34.132813 34.132812v273.066407c0 18.851562 15.28125 34.132812 34.132813 34.132812zm0 0" fill="#fff"/><path d="m.00390625 315.742188v-273.066407h17.06640575v273.066407zm0 0" fill="#fff"/><g fill="#428dff"><path d="m8.539062 273.074219c-4.714843 0-8.53515575 3.820312-8.53515575 8.535156v34.132813h17.06640575v-34.132813c0-4.714844-3.820312-8.535156-8.53125-8.535156zm0 0"/><path d="m17.070312 42.675781h-17.06640575v170.664063c0 4.714844 3.82031275 8.535156 8.53515575 8.535156 4.710938 0 8.53125-3.820312 8.53125-8.535156zm0 0"/><path d="m.00390625 247.476562c.03515625 2.257813.91796875 4.421876 2.47656275 6.058594l1.277343 1.023438c.476563.324218.992188.582031 1.535157.765625.484375.246093 1.003906.421875 1.539062.511719.5625.097656 1.132813.152343 1.707031.171874 2.257813-.03125 4.421876-.917968 6.058594-2.472656.769532-.816406 1.378906-1.773437 1.789063-2.816406 1.289062-3.183594.585937-6.824219-1.789063-9.300781-.816406-.773438-1.773437-1.382813-2.816406-1.792969-1.027344-.4375-2.128906-.667969-3.242188-.683594-2.261718.035156-4.425781.917969-6.058593 2.476563-1.558594 1.632812-2.4414065 3.796875-2.47656275 6.058593zm0 0"/><path d="m496.183594 512.007812c-4.503906-.003906-8.789063-1.953124-11.757813-5.339843l-115.851562-126.03125c-14.34375-14.304688-33.796875-22.304688-54.058594-22.226563h-271.84375c-23.554687-.03125-42.640625-19.117187-42.66796875-42.667968 0-4.714844 3.82031275-8.535157 8.53515575-8.535157 4.710938 0 8.53125 3.820313 8.53125 8.535157 0 14.136718 11.460938 25.597656 25.601563 25.597656h271.84375c24.914063-.070313 48.816406 9.832031 66.382813 27.496094l114.039062 124.050781v-450.210938c0-14.140625-11.460938-25.601562-25.601562-25.601562h-426.664063c-14.140625 0-25.601563 11.460937-25.601563 25.601562 0 4.710938-3.820312 8.53125-8.53125 8.53125-4.714843 0-8.53515575-3.820312-8.53515575-8.53125.02734375-23.554687 19.11328175-42.6406248 42.66796875-42.6679685h426.664063c23.554687.0273437 42.640624 19.1132815 42.667968 42.6679685v453.554688c.03125 6.5625-4.03125 12.449219-10.179687 14.746093-1.800781.679688-3.714844 1.03125-5.640625 1.03125zm0 0"/><path d="m204.804688 358.410156c-2.835938 0-5.484376-1.40625-7.074219-3.75-1.585938-2.347656-1.90625-5.328125-.855469-7.960937l136.535156-341.332031c1.753906-4.378907 6.722656-6.507813 11.101563-4.753907 4.378906 1.753907 6.507812 6.722657 4.753906 11.101563l-136.535156 341.335937c-1.296875 3.238281-4.4375 5.359375-7.925781 5.359375zm0 0"/><path d="m196.269531 281.609375c-3.628906-.003906-6.859375-2.300781-8.054687-5.726563l-60.210938-173.066406-60.21875 173.066406c-.949218 2.949219-3.417968 5.15625-6.460937 5.761719-3.039063.605469-6.167969-.484375-8.171875-2.847656s-2.570313-5.628906-1.480469-8.53125l64.386719-184.925781c1.796875-5.050782 6.582031-8.425782 11.945312-8.425782 5.363282 0 10.148438 3.375 11.945313 8.425782l64.351562 184.9375c.902344 2.601562.496094 5.484375-1.097656 7.730468-1.59375 2.25-4.175781 3.589844-6.933594 3.601563zm0 0"/><path d="m173.519531 221.875h-91.03125c-4.714843 0-8.535156-3.820312-8.535156-8.535156 0-4.710938 3.820313-8.53125 8.535156-8.53125h91.03125c4.714844 0 8.535157 3.820312 8.535157 8.53125 0 4.714844-3.820313 8.535156-8.535157 8.535156zm0 0"/><path d="m429.792969 187.742188h-57.445313c-6.085937-.011719-11.8125-2.878907-15.472656-7.742188l-12.125-16.152344c-3.878906-5.171875-4.5-12.089844-1.609375-17.871094s8.800781-9.433593 15.261719-9.433593h85.335937c6.464844 0 12.375 3.652343 15.265625 9.433593s2.265625 12.699219-1.613281 17.871094l-12.125 16.164063c-3.660156 4.859375-9.386719 7.722656-15.472656 7.730469zm13.945312-34.183594-85.335937.050781 12.121094 16.160156c.425781.570313 1.09375.90625 1.808593.90625h57.445313c.707031 0 1.375-.332031 1.800781-.898437zm0 0"/><path d="m401.070312 281.609375c-4.710937 0-8.53125-3.820313-8.53125-8.535156v-187.734375c0-4.710938 3.820313-8.53125 8.53125-8.53125 4.714844 0 8.535157 3.820312 8.535157 8.53125v187.734375c0 4.714843-3.820313 8.535156-8.535157 8.535156zm0 0"/><path d="m332.804688 256.007812c-4.714844 0-8.535157-3.820312-8.535157-8.53125 0-4.714843 3.820313-8.535156 8.535157-8.535156 29.242187 0 52.308593-31.09375 59.988281-61.808594 1.171875-4.539062 5.789062-7.28125 10.335937-6.144531 4.550782 1.140625 7.328125 5.738281 6.21875 10.292969-8.992187 35.984375-36.785156 74.726562-76.542968 74.726562zm0 0"/><path d="m469.335938 256.007812c-39.753907 0-67.546876-38.742187-76.542969-74.726562-1.105469-4.554688 1.671875-9.152344 6.21875-10.292969 4.546875-1.136719 9.164062 1.605469 10.335937 6.144531 7.679688 30.722657 30.71875 61.808594 59.988282 61.808594 4.714843 0 8.535156 3.820313 8.535156 8.535156 0 4.710938-3.820313 8.53125-8.535156 8.53125zm0 0"/><path d="m426.671875 119.476562h-51.199219c-4.714844 0-8.535156-3.820312-8.535156-8.535156 0-4.710937 3.820312-8.53125 8.535156-8.53125h51.199219c4.710937 0 8.53125 3.820313 8.53125 8.53125 0 4.714844-3.820313 8.535156-8.53125 8.535156zm0 0"/><path d="m115.28125 512.007812c-1.679688.003907-3.339844-.328124-4.890625-.972656l-25.90625-10.742187c-4.035156-1.667969-7.699219-4.117188-10.777344-7.210938l-66.390625-66.492187c-5.191406-5.210938-7.832031-12.441406-7.222656-19.773438.613281-7.332031 4.414062-14.023437 10.398438-18.300781 10.300781-7.003906 24.136718-5.601563 32.828124 3.316406l65.78125 65.871094c3.089844 3.082031 5.539063 6.75 7.203126 10.785156l10.71875 25.898438c1.632812 3.925781 1.199218 8.410156-1.160157 11.949219-2.359375 3.539062-6.328125 5.667968-10.582031 5.671874zm-90.640625-110.933593c-1.492187-.019531-2.949219.421875-4.171875 1.273437-1.929688 1.351563-3.160156 3.488282-3.367188 5.832032-.207031 2.347656.628907 4.664062 2.289063 6.335937l66.425781 66.5c1.492188 1.507813 3.273438 2.699219 5.238282 3.507813l16.214843 6.714843-6.71875-16.214843c-.808593-1.964844-2-3.753907-3.503906-5.253907l-65.800781-65.878906c-1.75-1.765625-4.121094-2.777344-6.605469-2.816406zm0 0"/><path d="m30.835938 446.582031c-3.449219 0-6.558594-2.074219-7.878907-5.261719-1.324219-3.183593-.597656-6.851562 1.835938-9.292968l23.296875-23.324219c2.152344-2.15625 5.296875-3.003906 8.242187-2.21875 2.945313.789063 5.25 3.085937 6.039063 6.03125.792968 2.945313-.042969 6.085937-2.199219 8.246094l-23.296875 23.320312c-1.601562 1.601563-3.773438 2.503907-6.039062 2.5zm0 0"/><path d="m290.136719 512.007812h-170.664063c-4.714844 0-8.535156-3.820312-8.535156-8.53125 0-4.714843 3.820312-8.535156 8.535156-8.535156h170.664063c4.714843 0 8.535156 3.820313 8.535156 8.535156 0 4.710938-3.820313 8.53125-8.535156 8.53125zm0 0"/><path d="m230.402344 477.875h-85.332032c-4.710937 0-8.53125-3.820312-8.53125-8.535156 0-4.710938 3.820313-8.53125 8.53125-8.53125h85.332032c4.714844 0 8.535156 3.820312 8.535156 8.53125 0 4.714844-3.820312 8.535156-8.535156 8.535156zm0 0"/><path d="m204.804688 443.742188h-85.332032c-4.714844 0-8.535156-3.820313-8.535156-8.535157 0-4.710937 3.820312-8.53125 8.535156-8.53125h85.332032c4.710937 0 8.53125 3.820313 8.53125 8.53125 0 4.714844-3.820313 8.535157-8.53125 8.535157zm0 0"/></g></svg>