<svg height="512" viewBox="0 0 44 60" width="512" xmlns="http://www.w3.org/2000/svg"><g id="023---Animal-Panflet" fill="none"><g id="Layer_3" transform="translate(1)"><path id="Shape" d="m37 8h-37l34.19-6.95c.6592167-.15849654 1.3547761-.01538477 1.8978733.39048861.5430972.40587337.8773863 1.03239921.9121267 1.70951139z" fill="#cad9fc"/><path id="Shape" d="m34 8v-4.85c-.0108309-.76870644-.4350563-1.47192682-1.11-1.84l-32.89 6.69z" fill="#e8edfc"/><path id="Shape" d="m42 10v47c0 1.1045695-.8954305 2-2 2h-38c-1.1045695 0-2-.8954305-2-2v-49h40c1.1045695 0 2 .8954305 2 2z" fill="#cad9fc"/><g fill="#e8edfc"><path id="Shape" d="m39 10v47c0 1.1045695-.8954305 2-2 2h-35c-1.1045695 0-2-.8954305-2-2v-49h37c1.1045695 0 2 .8954305 2 2z"/><path id="Shape" d="m11.32 24.87c-.5938293.6368288-1.0953835 1.3538157-1.49 2.13-2.18-.46-3.83-2.73-3.83-5.46 0-4 1.91-5.54 4.37-5.54.8989483.0655146 1.7536301.415794 2.44 1-1.6879915 2.2513155-2.2381997 5.1574488-1.49 7.87z"/><path id="Shape" d="m36 21.54c0 2.73-1.65 5-3.82 5.46-.411923-.7656642-.9119871-1.4805208-1.49-2.13.7430053-2.6981077.1886175-5.5883161-1.5-7.82.6791001-.6035302 1.534844-.9717806 2.44-1.05 2.46 0 4.37 1.58 4.37 5.54z"/></g><path id="Shape" d="m33 30.5c0 6.18-7.13 10.2-13.5 9.42-9.07-.89-13.57-9.21-8.18-15-.6591547-2.6595961-.1416533-5.4742313 1.4204051-7.7254332s4.0175196-3.7211303 6.7395949-4.0345668c7.08-1 13 5.23 11.16 11.76 1.4575055 1.4989494 2.2996562 3.4901363 2.36 5.58z" fill="#a4c2f7"/><path id="Shape" d="m30 30.5c0 4.85-4.58 8.84-10.5 9.42-9.07-.89-13.57-9.21-8.18-15-.6591547-2.6595961-.1416533-5.4742313 1.4204051-7.7254332s4.0175196-3.7211303 6.7395949-4.0345668c5.85.85 9.65 6.36 8.16 11.76 1.4575055 1.4989494 2.2996562 3.4901363 2.36 5.58z" fill="#cad9fc"/></g><path id="Shape" d="m2 58h3c-1.1045695 0-2-.8954305-2-2v-49l32.87-6.68c-.5097593-.28781855-1.1057272-.38359911-1.68-.27l-34.19 6.95v49c0 1.1045695.8954305 2 2 2z" fill="#fff" transform="translate(1 1)"/><g id="Layer_2" transform="translate(-1)"><path id="Rectangle-path" d="m1 49h2v8h-2z" fill="#fff"/><g fill="#428dff"><path id="Shape" d="m38 45h-15c-.5522847 0-1 .4477153-1 1s.4477153 1 1 1h15c.5522847 0 1-.4477153 1-1s-.4477153-1-1-1z"/><path id="Shape" d="m8 47h10c.5522847 0 1-.4477153 1-1s-.4477153-1-1-1h-10c-.55228475 0-1 .4477153-1 1s.44771525 1 1 1z"/><path id="Shape" d="m38 49h-22c-.5522847 0-1 .4477153-1 1s.4477153 1 1 1h22c.5522847 0 1-.4477153 1-1s-.4477153-1-1-1z"/><path id="Shape" d="m8 51h3c.5522847 0 1-.4477153 1-1s-.4477153-1-1-1h-3c-.55228475 0-1 .4477153-1 1s.44771525 1 1 1z"/><path id="Shape" d="m8 55h11.67c.5522847 0 1-.4477153 1-1s-.4477153-1-1-1h-11.67c-.55228475 0-1 .4477153-1 1s.44771525 1 1 1z"/><circle id="Oval" cx="2" cy="53" r="1"/><path id="Shape" d="m4 60h38c1.6568542 0 3-1.3431458 3-3v-47c0-1.65685425-1.3431458-3-3-3h-2v-3.85c-.0452656-.99625757-.5426886-1.91740085-1.3509102-2.50165749-.8082217-.58425664-1.8388835-.76775292-2.7990898-.49834251l-32.8 6.62c-1 .21-1.7.21-2 .87-.03169977.11742794-.04849837.23837787-.05.36v41c0 .5522847.44771525 1 1 1s1-.4477153 1-1v-40h39c.5522847 0 1 .44771525 1 1v47c0 .5522847-.4477153 1-1 1h-38c-.55228475 0-1-.4477153-1-1s-.44771525-1-1-1c-1.91 0-1 4 2 4zm7.94-53 24.45-5c.3699582-.0996437.7650986-.02832073 1.0768742.19437614s.5073969.57334653.5331258.95562386v3.85z"/><path id="Shape" d="m33.63 15c-.8028912.0324942-1.5827738.2775015-2.26.71-2.1419281-2.3615349-5.1817869-3.7083533-8.37-3.7083533s-6.2280719 1.3468184-8.37 3.7083533c-.6772262-.4324985-1.4571088-.6775058-2.26-.71-3.37 0-5.37 2.44-5.37 6.54-.08747444 2.5230232 1.27627962 4.8736534 3.51 6.05-2.41 6.81 3.97 13.41 12.49 13.41s14.92-6.56 12.49-13.41c2.2337204-1.1763466 3.5974744-3.5269768 3.51-6.05 0-4.1-2-6.54-5.37-6.54zm-24.63 6.54c0-3 1.13-4.54 3.37-4.54.3745327.0315444.7369963.1478063 1.06.34-1.3107646 2.1822587-1.7399262 4.7822628-1.2 7.27-.3131589.3768309-.6004808.7744043-.86 1.19-1.5255844-.8639712-2.44031446-2.5081696-2.37-4.26zm14 17.46c-10.3 0-15-10.11-6.84-15.15.3208266-.1794485.5173326-.5204516.5117242-.8880112s-.2124268-.7024085-.538579-.8719852c-.3261522-.1695766-.7190478-.1465375-1.0231452.0599964-.38.24-.73.5-1.08.77-.44-8.29 11.13-12.39 16.37-5.25 1.1357216 1.5065794 1.7024267 3.3660802 1.6 5.25-.3452016-.2768142-.705777-.5338911-1.08-.77-.2265272-.140135-.4996021-.1841025-.7586668-.1221522-.2590648.0619502-.4827077.2246981-.6213332.4521522-.2851012.469769-.137733 1.0815706.33 1.37 8.21 5.07 3.37 15.15-6.87 15.15zm11.63-13.2c-.2595192-.4155957-.5468411-.8131691-.86-1.19.5399262-2.4877372.1107646-5.0877413-1.2-7.27.3230037-.1921937.6854673-.3084556 1.06-.34 2.24 0 3.37 1.53 3.37 4.54.0703145 1.7518304-.8444156 3.3960288-2.37 4.26z"/><path id="Shape" d="m20 23c.5522847 0 1-.4477153 1-1v-2c0-.5522847-.4477153-1-1-1s-1 .4477153-1 1v2c0 .5522847.4477153 1 1 1z"/><path id="Shape" d="m26 23c.5522847 0 1-.4477153 1-1v-2c0-.5522847-.4477153-1-1-1s-1 .4477153-1 1v2c0 .5522847.4477153 1 1 1z"/><path id="Shape" d="m21 29c.5522847 0 1-.4477153 1-1s.4477153-1 1-1 1 .4477153 1 1 .4477153 1 1 1c1.91 0 1-4-2-4s-3.92 4-2 4z"/><path id="Shape" d="m29.2 32.31c-2.62 3.54-9.63 3.59-12.34.08-.3480706-.3974888-.9452983-.4556194-1.3634877-.1327136-.4181894.3229057-.513025.9154143-.2165123 1.3527136 3.52 4.57 12.11 4.5 15.52-.11.2468831-.2832737.3141279-.681037.1740824-1.0297238s-.4637399-.5894345-.8379753-.6232441-.7358363.1450263-.9361071.4629679z"/></g></g></g></svg>