<svg height="512" viewBox="0 0 56 60" width="512" xmlns="http://www.w3.org/2000/svg"><g id="Page-1" fill="none" fill-rule="evenodd"><g id="002---Warrior-Pose" fill-rule="nonzero"><path id="Shape" d="m33 9c0 2.67-1.88 8-5 8s-5-5.33-5-8c-.0001533-1.54881336.9600939-2.93539439 2.41-3.48 1.6570635-.6933441 3.5229365-.6933441 5.18 0 1.4499061.54460561 2.4101533 1.93118664 2.41 3.48z" fill="#e8edfc"/><path id="Shape" d="m30.59 5.52c-.8178646-.35128104-1.6999265-.52837455-2.59-.52-.5046759.00130756-1.0076851.05797993-1.5.169.37417.08020587.7393366.19779621 1.09.351 1.4499061.54460561 2.4101533 1.93118664 2.41 3.48 0 2.209-1.289 6.229-3.5 7.555.4496364.2832913.968618.4372558 1.5.445 3.12 0 5-5.33 5-8 .0001533-1.54881336-.9600939-2.93539439-2.41-3.48z" fill="#cad9fc"/><path id="Shape" d="m31 4c.0021576.53427192-.1394578 1.05928526-.41 1.52-1.6570635-.6933441-3.5229365-.6933441-5.18 0-.6370514-1.08988463-.523646-2.46197025.2837004-3.43247267.8073463-.97050242 2.1358725-1.33174746 3.3235023-.90370725s1.9802269 1.55377094 1.9827973 2.81617992z" fill="#a4c2f7"/><path id="Shape" d="m46 42c-.41 1.64-1.16 4.79-1.9 7.94l-5.56-1.52c.79-3.73 1.46-6.42 1.46-6.42h-13c-3.3137085 0-6-2.6862915-6-6v-15c1.3563945-.8596962 2.1260798-2.3990667 2-4h10c-.1260798 1.6009333.6436055 3.1403038 2 4v13.25c3.85.37 7.62 1.06 9 1.75 2 1 3 2 2 6z" fill="#e8edfc"/><path id="Shape" d="m44 36c-1.38-.69-5.15-1.38-9-1.75v-13.25c-1.3563945-.8596962-2.1260798-2.3990667-2-4h-3c-.1260798 1.6009333.6436055 3.1403038 2 4v13.25c3.85.37 7.62 1.06 9 1.75 2 1 3 2 2 6-.376 1.506-1.04 4.286-1.719 7.169l2.819.771c.74-3.15 1.49-6.3 1.9-7.94 1-4 0-5-2-6z" fill="#cad9fc"/><path id="Shape" d="m55 17c0 2.209139-1.790861 4-4 4h-16c-1.3563945-.8596962-2.1260798-2.3990667-2-4z" fill="#e8edfc"/><path id="Shape" d="m52 17c0 2.209139-1.790861 4-4 4h3c2.209139 0 4-1.790861 4-4z" fill="#cad9fc"/><path id="Shape" d="m23 17c.1260798 1.6009333-.6436055 3.1403038-2 4h-16c-2.209139 0-4-1.790861-4-4z" fill="#e8edfc"/><path id="Shape" d="m44.1 49.94-2.1 9.06c-2.4998094.0005726-4.529536-2.0202124-4.54-4.52-.0032614-.2310115.0134676-.4618721.05-.69.13-.84.29-1.77.49-2.79.18-.9.36-1.76.54-2.58z" fill="#e8edfc"/><path id="Shape" d="m38.54 48.42c-.055.252-.111.515-.166.775l2.726.745c-.757 3.266-1.512 6.522-1.875 8.091.790083.6251963 1.7674806.966493 2.775.969l2.1-9.06z" fill="#cad9fc"/><path id="Shape" d="m28 42c-3.69 1.05-9.58 5.72-14.32 9.9l-3.37-4.33c9.86-9.43 10.69-13.57 10.69-13.57v2c0 3.3137085 2.6862915 6 6 6z" fill="#a4c2f7"/><path id="Shape" d="m13.68 51.9c-4.25 3.75-7.59 7.1-7.59 7.1l-.38-.63c-1.49442957-2.6178444-.89595184-5.9305451 1.42-7.86 1.15-1.03 2.21-2.01 3.18-2.94z" fill="#e8edfc"/><g fill="#fff"><path id="Shape" d="m28 17c.5347801-.0076539 1.0570271-.1630475 1.509-.449-2.129-1.296-3.509-5.127-3.509-7.551-.0001533-1.54881336.9600939-2.93539439 2.41-3.48-.8346488-1.43897935-.3470463-3.28202737 1.09-4.12-.4556574-.26405074-.9733673-.40210672-1.5-.4-1.0749809.00246247-2.0668237.57878078-2.6012757 1.51149245-.5344521.93271168-.5301527 2.07982822.0112757 3.00850755-1.4499061.54460561-2.4101533 1.93118664-2.41 3.48 0 2.953 2.045 8 5 8z"/><path id="Shape" d="m5 21h3c-2.209139 0-4-1.790861-4-4h-3c0 2.209139 1.790861 4 4 4z"/><path id="Shape" d="m5.71 58.37.38.63c.558-.56 1.253-1.242 2.043-2-.64579915-2.3674871.13333793-4.8950078 2-6.488 1.15-1.03 2.21-2.01 3.18-2.94 9.857-9.432 10.687-13.572 10.687-13.572v-13h-3v13s-.83 4.14-10.69 13.57c-.97.9333333-2.03 1.9133333-3.18 2.94-2.31595184 1.9294549-2.91442957 5.2421556-1.42 7.86z"/><path id="Rectangle-path" d="m20 24h2v8h-2z"/></g><circle id="Oval" cx="21" cy="28" fill="#428dff" r="1"/><path id="Shape" d="m0 59c0 .5522847.44771525 1 1 1h49c.5522847 0 1-.4477153 1-1s-.4477153-1-1-1h-6.742c.771-3.332 2.906-12.534 3.712-15.757 1.1-4.391-.04-5.9-2.523-7.138-1.486-.742-4.923-1.381-8.447-1.754v-11.351h15c2.7600532-.0033061 4.9966939-2.2399468 5-5 0-.5522847-.4477153-1-1-1h-23.432c1.4913635-2.0381911 2.3383934-4.4761882 2.432-7 .0185427-1.59095677-.7976569-3.07536997-2.151-3.912.4596144-1.63069945-.1579639-3.37407742-1.5415989-4.35181988s-3.2331672-.97774246-4.6168022 0-2.0012133 2.72112043-1.5415989 4.35181988c-1.3525771.83711881-2.1679687 2.32144259-2.149 3.912.0936066 2.5238118.9406365 4.9618089 2.432 7h-23.432c-.55228475 0-1 .4477153-1 1 .00330612 2.7600532 2.23994685 4.9966939 5 5h15v2c0 .5522847.4477153 1 1 1s1-.4477153 1-1v-2.476c1.0753335-.8799307 1.7660683-2.1437674 1.926-3.524h8.148c.1599317 1.3802326.8506665 2.6440693 1.926 3.524v11.645c-1.419-.109-2.794-.169-4-.169-.5522847 0-1 .4477153-1 1s.4477153 1 1 1c5.167 0 11.883 1.06 13.553 1.9 1.492.746 2.393 1.2 1.477 4.862-.365 1.461-1 4.14-1.66 6.946l-3.66-1c.693-3.187 1.253-5.431 1.26-5.46.0766677-.2994853.0105109-.6175927-.1792033-.8616786-.1897141-.2440858-.481654-.3867048-.7907967-.3863214h-13c-2.7600532-.0033061-4.9966939-2.2399468-5-5v-4c0-.5522847-.4477153-1-1-1s-1 .4477153-1 1v1.866c-.209.663-2.08 5.653-13.539 15.9-2.38544035 2.0167306-3.21071532 5.3347551-2.048 8.234h-3.413c-.55228475 0-1 .4477153-1 1zm26-55c0-1.1045695.8954305-2 2-2s2 .8954305 2 2c-.0057869.08730209-.0171433.1741455-.034.26-1.2877437-.3466663-2.6442563-.3466663-3.932 0-.0168567-.0858545-.0282131-.17269791-.034-.26zm-2 5c0-2.061 2.073-3 4-3s4 .939 4 3c0 2.4-1.689 7-4 7s-4-4.6-4-7zm-3.294 11h-15.706c-1.27098879-.0015506-2.40364643-.8022983-2.829-2h19.718c-.1351971.7893768-.5563204 1.5013351-1.183 2zm33.123-2c-.4253536 1.1977017-1.5580112 1.9984494-2.829 2h-15.706c-.6263207-.4989774-1.0473562-1.2107873-1.183-2zm-10.916 32.652c-.7 3.01-1.369 5.879-1.688 7.263-1.8129107-.4014494-3.0056913-2.1377535-2.73-3.974.127-.828.286-1.746.485-2.745.1053333-.524.21-1.035.314-1.533zm-22.689-12.928c.558975 2.1824231 2.1316932 3.9638204 4.228 4.789-3.7812073 2.3127188-7.3412582 4.9689486-10.635 7.935l-2.165-2.783c3.214388-2.9881855 6.0891273-6.322038 8.572-9.941zm-12.43 13.535c.853-.762 1.651-1.5 2.4-2.2l2.113 2.716c-2.613 2.329-4.813 4.439-6 5.6-.91056619-2.1432496-.30594073-4.6300615 1.487-6.116zm20.365-8.259h10.57c-.374 1.573-1.045 4.481-1.709 7.8-.207 1.031-.371 1.979-.5 2.834-.2396584 1.562544.2036004 3.1527395 1.217 4.366h-29.195c4.073-3.923 14.284-13.384 19.617-15z" fill="#428dff"/><path id="Shape" d="m54 58c-.5522847 0-1 .4477153-1 1s.4477153 1 1 1h1c.5522847 0 1-.4477153 1-1s-.4477153-1-1-1z" fill="#428dff"/></g></g></svg>